<svg t="1710398008751" class="icon" viewBox="0 0 1024 1024" version="1.1" xmlns="http://www.w3.org/2000/svg" p-id="897" width="200" height="200"><path d="M850.336 456.32a32 32 0 0 1-40.192 49.664l-2.912-2.336-273.664-249.504a32 32 0 0 0-40.192-2.368l-2.944 2.368-273.664 249.504a32 32 0 0 1-45.728-44.64l2.624-2.656 273.664-249.504a96 96 0 0 1 125.024-3.68l4.32 3.68 273.664 249.504z" fill="#999999" p-id="898"></path><path d="M288 416v288a32 32 0 0 0 28.256 31.776L320 736h384a32 32 0 0 0 31.776-28.256L736 704v-288h64v288a96 96 0 0 1-90.368 95.84L704 800H320a96 96 0 0 1-95.84-90.368L224 704v-288h64z" fill="#999999" p-id="899"></path><path d="M582.528 555.712l3.68-3.136a32 32 0 1 1 43.584 46.848c-27.712 25.76-71.232 40.576-117.856 40.576-46.528 0-89.984-14.752-117.696-40.416a32 32 0 1 1 43.52-46.944c15.008 13.888 42.88 23.36 74.176 23.36 28.96 0 54.976-8.096 70.592-20.288z" fill="#999999" p-id="900"></path></svg>